<svg version="1.1" id="Layer_1" xmlns="http://www.w3.org/2000/svg" xmlns:xlink="http://www.w3.org/1999/xlink" x="0px" y="0px"
	 width="100%" viewBox="0 0 1024 1024" enable-background="new 0 0 1024 1024" xml:space="preserve">
<path fill="#000000" opacity="1.000000" stroke="none" 
	d="
M801.157043,690.157776 
	C824.186768,668.411804 839.486267,642.051086 850.818481,613.222961 
	C863.210571,581.698792 870.251343,549.061890 867.741699,515.057922 
	C864.887451,476.384918 851.153320,442.600067 819.043640,418.783234 
	C796.542236,402.093262 770.792114,393.199280 742.704041,392.740936 
	C718.562195,392.346954 696.591431,400.545807 676.113831,412.787628 
	C650.878357,427.873749 630.953857,448.815216 612.075439,471.010590 
	C589.491760,497.562378 570.083984,526.550049 547.937866,553.431091 
	C528.128784,577.475403 506.704926,599.733459 480.221344,616.530945 
	C460.907318,628.781006 440.143280,637.524658 417.361938,640.919006 
	C414.738708,641.309814 412.021027,641.553040 409.394196,641.324158 
	C404.971893,640.938904 402.904144,642.736023 401.557709,646.980957 
	C393.756927,671.574890 385.652557,696.072327 377.702423,720.619141 
	C371.136261,740.892822 364.638275,761.188660 358.116638,781.476746 
	C355.633423,789.201904 355.641754,789.208618 347.761444,789.210144 
	C342.761810,789.211060 337.755005,789.030212 332.764893,789.244995 
	C328.911469,789.410889 327.074127,787.660461 325.940155,784.150085 
	C311.399475,739.138550 296.787048,694.150208 282.171295,649.162903 
	C268.124146,605.925903 254.024353,562.705994 239.998093,519.462219 
	C224.891037,472.886261 209.881912,426.278473 194.758026,379.707977 
	C177.833694,327.593384 160.831558,275.504028 143.856857,223.405807 
	C138.387680,206.620041 132.885635,189.845016 127.425316,173.056381 
	C125.682701,167.698425 126.287285,166.850937 131.805618,166.783157 
	C135.804764,166.734024 139.841660,167.101486 143.795746,166.673553 
	C149.443146,166.062378 152.165543,168.367325 153.819336,173.731201 
	C160.048782,193.935638 166.605896,214.039749 173.124008,234.154312 
	C187.753387,279.299896 202.425659,324.431580 217.094086,369.564484 
	C230.318680,410.254883 243.565842,450.937927 256.788696,491.628876 
	C258.006378,495.376068 258.309052,499.413666 260.440948,503.488373 
	C261.425995,499.313629 259.976440,495.835266 259.919373,492.298950 
	C259.078583,440.214539 271.115234,391.797058 301.972534,349.143616 
	C328.324432,312.717896 362.919220,288.003571 407.389862,278.444489 
	C434.996674,272.510315 462.624176,273.055359 490.020813,279.881378 
	C494.114990,280.901459 495.248688,279.622589 496.352295,276.186737 
	C507.404358,241.779144 518.650818,207.433746 529.611084,172.997192 
	C531.071655,168.408127 533.205566,166.333939 538.106628,166.711395 
	C542.745911,167.068665 547.435791,166.708389 552.099060,166.830978 
	C556.951721,166.958542 557.629883,167.974243 556.088745,172.697220 
	C549.168335,193.905777 542.176758,215.091156 535.267395,236.303329 
	C518.149902,288.855286 501.053162,341.413940 483.967346,393.976196 
	C465.028107,452.240326 446.114441,510.512787 427.180054,568.778564 
	C422.652374,582.711304 418.065277,596.624756 413.566437,610.566772 
	C413.023987,612.247803 412.009216,613.926514 412.847260,616.190125 
	C421.553528,616.225708 429.729065,613.507019 437.783508,610.561890 
	C466.331970,600.123230 489.451691,581.789246 509.892059,559.875244 
	C533.471558,534.595764 552.781372,505.894684 574.046936,478.758362 
	C592.356750,455.393799 611.641052,432.914337 633.921570,413.112762 
	C656.650757,392.912506 682.353088,378.642029 711.988770,371.405334 
	C740.328064,364.485229 767.686035,367.914764 794.735962,377.778503 
	C836.056885,392.846161 864.434204,421.019989 880.441223,461.745880 
	C886.809692,477.948914 890.192322,494.850677 891.383423,512.287292 
	C895.183044,567.911926 880.728943,618.822998 852.033447,666.039062 
	C828.444214,704.853210 796.011414,733.535339 753.347595,749.895264 
	C729.507324,759.037048 704.787292,762.166992 679.297058,759.413513 
	C668.496155,758.246704 657.979614,755.943115 647.450623,753.466492 
	C643.353333,752.502686 642.232483,750.639709 643.804382,746.721985 
	C645.477356,742.552124 646.938477,738.285583 648.257812,733.989197 
	C649.354553,730.417786 651.383484,729.394897 655.033997,730.149231 
	C667.927002,732.813538 680.939331,734.916809 694.137878,734.726074 
	C735.571106,734.127380 770.781006,718.346924 801.157043,690.157776 
M479.020172,329.590393 
	C481.237122,322.780823 483.317230,315.922302 485.727173,309.181702 
	C486.983215,305.668640 486.258453,304.007233 482.462921,303.337708 
	C458.888672,299.179230 435.444489,299.560303 412.059662,304.795563 
	C369.772919,314.262482 337.896271,338.371002 314.846283,374.472351 
	C298.431183,400.181976 289.944153,428.733124 286.007843,458.855225 
	C282.182648,488.127197 284.183197,516.685181 295.078674,544.304504 
	C310.597412,583.643372 339.556854,606.705566 380.803284,615.002197 
	C385.230621,615.892761 386.640503,614.539917 387.853394,610.719666 
	C394.505066,589.768677 401.348877,568.878784 408.133301,547.969971 
	C431.672119,475.425964 455.213776,402.882843 479.020172,329.590393 
M348.956848,730.611694 
	C358.243958,701.952637 367.489044,673.279785 376.868652,644.651062 
	C378.117035,640.840759 377.821899,638.834290 373.285553,638.078674 
	C368.557129,637.291077 363.941406,635.746521 359.328308,634.360107 
	C336.895294,627.618469 317.095276,616.514282 301.160858,599.051758 
	C295.055878,592.361389 289.725708,585.078735 284.791412,577.444336 
	C303.499939,636.660339 323.387054,695.403320 342.243805,754.765747 
	C344.417725,746.977051 346.591675,739.188354 348.956848,730.611694 
z"/>
</svg>